<svg xmlns="http://www.w3.org/2000/svg" viewBox="-240 -240 480 480"><style>.r{stroke:#48483E}.f{fill:#48483E}.s{fill:#D9D6CD}@media (prefers-color-scheme:dark){.r{stroke:#D9D9D1}.f{fill:#D9D9D1}.s{fill:#46463C}}</style><g class="r" stroke-linecap="round" fill="none"><line x1="0" y1="-225.0" x2="0" y2="-163.41" stroke-width="12"/><line x1="0" y1="225.0" x2="0" y2="163.41" stroke-width="12"/></g><path class="f" d="M21.00 -181.29L146.50 -108.83A42 42 0 0 1 167.50 -72.46L167.50 72.46A42 42 0 0 1 146.50 108.83L21.00 181.29A42 42 0 0 1 -21.00 181.29L-146.50 108.83A42 42 0 0 1 -167.50 72.46L-167.50 -72.46A42 42 0 0 1 -146.50 -108.83L-21.00 -181.29A42 42 0 0 1 21.00 -181.29ZM8.00 -118.93L99.00 -66.40A16 16 0 0 1 107.00 -52.54L107.00 52.54A16 16 0 0 1 99.00 66.40L8.00 118.93A16 16 0 0 1 -8.00 118.93L-99.00 66.40A16 16 0 0 1 -107.00 52.54L-107.00 -52.54A16 16 0 0 1 -99.00 -66.40L-8.00 -118.93A16 16 0 0 1 8.00 -118.93Z" fill-rule="evenodd"/><rect class="s" x="-56.0" y="-56.0" width="112" height="112" rx="10"/></svg>